<?xml version="1.0" encoding="UTF-8" standalone="no"?>
<!-- Generator: Adobe Illustrator 16.0.0, SVG Export Plug-In . SVG Version: 6.00 Build 0)  -->

<svg
   xmlns:dc="http://purl.org/dc/elements/1.1/"
   xmlns:cc="http://creativecommons.org/ns#"
   xmlns:rdf="http://www.w3.org/1999/02/22-rdf-syntax-ns#"
   xmlns:svg="http://www.w3.org/2000/svg"
   xmlns="http://www.w3.org/2000/svg"
   xmlns:sodipodi="http://sodipodi.sourceforge.net/DTD/sodipodi-0.dtd"
   xmlns:inkscape="http://www.inkscape.org/namespaces/inkscape"
   version="1.1"
   id="Layer_1"
   x="0px"
   y="0px"
   width="256.5px"
   height="256.5px"
   viewBox="0 -31.25 256.5 256.5"
   enable-background="new 0 -31.25 256.5 256.5"
   xml:space="preserve"
   sodipodi:docname="icon2.svg"
   inkscape:version="0.92.2 (5c3e80d, 2017-08-06)"><metadata
     id="metadata11"><rdf:RDF><cc:Work
         rdf:about=""><dc:format>image/svg+xml</dc:format><dc:type
           rdf:resource="http://purl.org/dc/dcmitype/StillImage" /><dc:title /></cc:Work></rdf:RDF></metadata><defs
     id="defs9" /><sodipodi:namedview
     pagecolor="#ffffff"
     bordercolor="#666666"
     borderopacity="1"
     objecttolerance="10"
     gridtolerance="10"
     guidetolerance="10"
     inkscape:pageopacity="0"
     inkscape:pageshadow="2"
     inkscape:window-width="1920"
     inkscape:window-height="1017"
     id="namedview7"
     showgrid="false"
     inkscape:zoom="1.8401559"
     inkscape:cx="204.01907"
     inkscape:cy="93.005204"
     inkscape:window-x="-8"
     inkscape:window-y="-8"
     inkscape:window-maximized="1"
     inkscape:current-layer="Layer_1" /><path
     fill="#FFFFFF"
     d="M158.029,132.15"
     id="path2" /><path
     d="m 468.28198,26.752987 c -5.48833,-1.94024 -5.84168,-2.14932 -10.17718,-5.20299 -2.83505,-2.55414 -2.15822,-1.95993 -3.11595,-2.91575 -3.25893,-3.23098 -3.43942,-9.1946799 -0.44867,-12.6595199 4.0743,-4.83121 10.96205,-6.25730996 14.6328,-11.50541 -6.57952,-0.5904 -13.28106,1.28946 -19.72394,-0.62345 -3.77942,-1.05051 -6.34564,-4.9125501 -6.45559,-8.7339201 0.46647,-6.1677 4.63801,-11.354163 5.03585,-17.549191 -5.36314,2.428314 -9.27539,7.114621 -14.57815,9.611571 -4.29419,1.87287 -9.85116,0.76199 -12.49937,-3.286262 -3.40256,-5.117825 -3.38286,-11.683361 -6.52549,-16.965786 -2.40035,4.17154 -3.15535,8.960167 -4.74669,13.439933 -1.03653,3.01871 -3.16996,5.817535 -6.20964,7.004045 -3.53285,1.40576 -7.62749,0.52112 -10.69513,-1.58498 -4.04698,-2.710488 -7.73108,-5.947816 -11.88927,-8.507046 -0.0807,6.565535 4.87887,11.936936 4.89285,18.488486 -0.34318,4.5687401 -4.31517,8.1981801 -8.79557,8.5966501 -5.92811,0.40483 -11.87656,-0.10994 -17.81674,0.10867 3.69108,4.25353 8.93919,6.51724004 13.31473,9.90646 3.08735,2.37493 4.79562,6.6697599 3.40384,10.4358399 -1.25515,3.60148 -3.71842,6.05648 -6.73649,8.05328 -3.49917,2.20969 -3.23733,2.18618 -7.61542,3.81692 -7.22075,2.70031 -20.71216,3.43497 -28.53285,6.00056 2.56559,0.18493 51.24118,-7.86962 81.48866,-7.24491 36.58422,0.17159 73.59869,6.28718 81.48801,7.24618 -5.99802,-1.58498 -22.04612,-4.43464 -27.6946,-5.92938 z m -25.68064,-3.29198 c -0.65141,1.68857 -2.73019,1.02953 -4.12324,1.35238 0.80329,-4.30754 2.61452,-8.46574 2.41687,-12.93152 0.34255,-13.5574999 -11.46538,-26.13885 -25.06292,-26.44072 -7.10699,-0.50778 -14.28263,2.21605 -19.53073,6.9703601 -5.31039,5.23476 -8.82989,12.62266 -8.35706,20.1834099 -0.10169,4.16518 1.50999,8.0679 2.55923,12.03417 -1.28947,0.0337 -2.57957,0.0616 -3.86967,0.0883 -2.89606,-6.0228 -3.51188,-12.91753 -2.28406,-19.4493899 2.326,-9.74185 9.50863,-18.3448501 18.92192,-21.9253601 7.04535,-2.90178 15.2645,-2.88144 22.29587,0.0483 10.02975,3.78641 17.44624,13.3160001 19.21616,23.8128501 0.53447,5.4584699 0.36923,11.2772699 -2.18237,16.2571899 z"
     id="path4"
     inkscape:connector-curvature="0"
     style="stroke-width:0.6355179" /><g
     id="g2091"
     transform="matrix(3.4150939,0,0,3.4150939,96.352241,81.012108)"><g
       id="g4517"
       transform="translate(-35.823872,-12.248459)"><path
         d="m 43.399,34.31 c 0,7.418 -6.02,13.438 -13.438,13.438 -7.418,0 -13.438,-6.02 -13.438,-13.438 0,-7.418 6.02,-13.438 13.438,-13.438 7.418,0 13.438,6.02 13.438,13.438 z"
         style="fill:none;fill-rule:evenodd;stroke:#000000;stroke-width:2.75620008;stroke-linecap:round;stroke-linejoin:round"
         id="path2095"
         inkscape:connector-curvature="0" /><path
         d="M 29.961,34.169 V 25.446"
         style="fill:none;stroke:#000000;stroke-width:2.75620008;stroke-linecap:round;stroke-linejoin:round"
         sodipodi:nodetypes="cc"
         id="path2097"
         inkscape:connector-curvature="0" /><path
         d="m 29.986,34.464 5.869,3.389"
         style="fill:none;stroke:#000000;stroke-width:2.75620008;stroke-linecap:round;stroke-linejoin:round"
         id="path2099"
         inkscape:connector-curvature="0" /><path
         d="m 31.178,34.31 c 0,0.672 -0.545,1.217 -1.217,1.217 -0.672,0 -1.217,-0.545 -1.217,-1.217 0,-0.672 0.545,-1.218 1.217,-1.218 0.672,0 1.217,0.546 1.217,1.218 z"
         style="fill:#000000;fill-rule:evenodd;stroke:#000000;stroke-width:1.72259998;stroke-linecap:round;stroke-linejoin:round"
         id="path2101"
         inkscape:connector-curvature="0" /></g></g><path
     inkscape:connector-curvature="0"
     d="m -101.16259,360.31197 v 15.74914 c 0,4.35271 -3.52188,7.87458 -7.87455,7.87458 h -15.74918 c -4.35267,0 -7.87456,-3.52187 -7.87456,-7.87458 v -15.74914 c 0,-4.3527 3.52189,-7.87456 7.87456,-7.87456 h 15.74918 c 4.35267,0 7.87455,3.52186 7.87455,7.87456 z m -7.87455,55.12207 h -15.74918 c -4.35267,0 -7.87456,3.52191 -7.87456,7.87458 v 15.74915 c 0,4.35269 3.52189,7.87459 7.87456,7.87459 h 15.74918 c 4.35267,0 7.87455,-3.5219 7.87455,-7.87459 v -15.74915 c 0,-4.35267 -3.52188,-7.87458 -7.87455,-7.87458 z m 62.996652,-62.99663 h -15.74915 c -4.35267,0 -7.87457,3.52186 -7.87457,7.87456 v 15.74914 c 0,4.35271 3.5219,7.87458 7.87457,7.87458 h 15.74915 c 4.35269,0 7.87459,-3.52187 7.87459,-7.87458 v -15.74914 c 0,-4.3527 -3.5219,-7.87456 -7.87459,-7.87456 z m 0,62.99663 h -15.74915 c -4.35267,0 -7.87457,3.52191 -7.87457,7.87458 v 15.74915 c 0,4.35269 3.5219,7.87459 7.87457,7.87459 h 15.74915 c 4.35269,0 7.87459,-3.5219 7.87459,-7.87459 v -15.74915 c 0,-4.35267 -3.5219,-7.87458 -7.87459,-7.87458 z m 62.99666,-62.99663 H 1.2069918 c -4.35265,0 -7.87455,3.52186 -7.87455,7.87456 v 15.74914 c 0,4.35271 3.5219,7.87458 7.87455,7.87458 H 16.956172 c 4.35269,0 7.87459,-3.52187 7.87459,-7.87458 v -15.74914 c 0,-4.3527 -3.5219,-7.87456 -7.87459,-7.87456 z m 0,62.99663 H 1.2069918 c -4.35265,0 -7.87455,3.52191 -7.87455,7.87458 v 15.74915 c 0,4.35269 3.5219,7.87459 7.87455,7.87459 H 16.956172 c 4.35269,0 7.87459,-3.5219 7.87459,-7.87459 v -15.74915 c 0,-4.35267 -3.5219,-7.87458 -7.87459,-7.87458 z M -124.78632,289.44072 h 15.74918 c 4.35267,0 7.87455,-3.52191 7.87455,-7.87458 v -31.49835 c 0,-4.35265 -3.52188,-7.87457 -7.87455,-7.87457 h -15.74918 c -4.35267,0 -7.87456,3.52192 -7.87456,7.87457 v 31.49835 c 0,4.35267 3.52189,7.87458 7.87456,7.87458 z m 196.864592,15.74914 v 157.49165 c 0,17.39497 -14.10339,31.49836 -31.49836,31.49836 H -148.41005 c -17.39495,0 -31.49835,-14.10339 -31.49835,-31.49836 V 305.18986 c 0,-17.39496 14.1034,-31.49829 31.49835,-31.49829 h 7.87457 v 7.87457 c 0,8.67434 7.06694,15.74917 15.74916,15.74917 h 15.74918 c 8.68224,0 15.749148,-7.07483 15.749148,-15.74917 v -7.87457 h 78.745824 v 7.87457 c 0,8.67434 7.0748298,15.74917 15.7491598,15.74917 H 16.956172 c 8.67434,0 15.74917,-7.07483 15.74917,-15.74917 v -7.87457 h 7.87457 c 17.39497,0 31.49836,14.10333 31.49836,31.49829 z m -15.74919,31.49836 c 0,-8.67435 -7.05957,-15.74917 -15.74917,-15.74917 H -148.41005 c -8.68224,0 -15.74921,7.07482 -15.74921,15.74917 v 125.99329 c 0,8.68964 7.06697,15.74923 15.74921,15.74923 H 40.579912 c 8.6896,0 15.74917,-7.05959 15.74917,-15.74923 z M 1.2069918,289.44072 H 16.956172 c 4.35269,0 7.87459,-3.52191 7.87459,-7.87458 v -31.49835 c 0,-4.35265 -3.5219,-7.87457 -7.87459,-7.87457 H 1.2069918 c -4.35265,0 -7.87455,3.52192 -7.87455,7.87457 v 31.49835 c 0,4.35267 3.5219,7.87458 7.87455,7.87458 z"
     id="path2-1"
     style="stroke-width:0.49216142" /><g
     transform="matrix(0.2801208,0,0,0.2801208,3.2841182,72.025645)"
     id="g2" /><path
     inkscape:connector-curvature="0"
     style="fill:#000000;stroke-width:0.27195773"
     d="m 230.3048,184.81693 -9.35154,-5.65318 v -1.52324 c 0,-1.74324 -0.2143,-3.48106 -0.2143,-5.22431 l 20.43788,-14.78471 h -25.65947 c -1.95782,-3.04375 -4.12452,-5.87047 -6.73939,-8.47719 l 5.43317,-24.14168 -18.26577,16.09092 c -1.9521,-0.6489 -3.91537,-1.3005 -5.86748,-1.7351 l -8.04832,-24.79329 -8.04261,24.79329 c -4.34996,0.86619 -8.26561,2.60944 -11.95797,4.78156 l -20.66091,-12.60986 9.57155,22.39572 c -0.8689,1.30621 -1.74053,2.38942 -2.38942,3.69563 l -20.33725,1.38631 15.11268,13.3984 c -0.21431,1.31165 -0.21431,2.39486 -0.21431,3.48107 -0.22273,3.04375 -0.22273,6.08776 0.21431,8.91966 h -21.1466 l 2.98162,6.561 85.35485,0.17539 -0.42888,0.21431 6.962,-0.0389 h 23.78066 l 2.80624,-6.91178 z m -17.17685,0 h -60.44777 c -0.65733,-2.40057 -0.87163,-4.78727 -0.87163,-7.17669 0,-17.17984 13.91308,-31.09564 31.09266,-31.09564 17.18256,0 31.09564,13.9158 31.09564,31.09564 0,2.39214 -0.4373,4.77612 -0.8689,7.17669 z"
     id="path4-0"
     sodipodi:nodetypes="ccscccccccccccccccccccccccccccsssc" /><g
     id="g4"
     transform="matrix(2.0790809,0,0,2.074571,0.88096969,-30.743733)"><path
       inkscape:connector-curvature="0"
       d="M 81.61,4.73 C 81.61,2.12 84.19,0 87.38,0 c 3.19,0 5.77,2.12 5.77,4.73 v 15.899726 c 0,2.61 -2.58,4.73 -5.77,4.73 -3.19,0 -5.77,-2.12 -5.77,-4.73 z M 15.85,44.916741 c -0.34,0 -0.61,-1.43 -0.61,-3.2 0,-1.77 0.27,-3.2 0.61,-3.2 h 15.79 c 0.34,0 0.61,1.43 0.61,3.2 0,1.77 -0.27,3.2 -0.61,3.2 z m 25.13,0 c -0.34,0 -0.61,-1.43 -0.61,-3.2 0,-1.77 0.27,-3.2 0.61,-3.2 h 15.79 c 0.34,0 0.61,1.43 0.61,3.2 0,1.77 -0.27,3.2 -0.61,3.2 z m 25.13,0 c -0.34,0 -0.61,-1.43 -0.61,-3.2 0,-1.77 0.27,-3.2 0.61,-3.2 H 81.9 c 0.34,0 0.61,1.43 0.61,3.2 0,1.77 -0.27,3.2 -0.61,3.2 z m 25.14,0 c -0.34,0 -0.61,-1.43 -0.61,-3.2 0,-1.77 0.27,-3.2 0.61,-3.2 h 15.79 c 0.34,0 0.61,1.43 0.61,3.2 0,1.77 -0.27,3.2 -0.61,3.2 z m -75.4,18.36 c -0.34,0 -0.61,-1.43 -0.61,-3.2 0,-1.77 0.27,-3.2 0.61,-3.2 h 15.79 c 0.34,0 0.61,1.43 0.61,3.2 0,1.77 -0.27,3.2 -0.61,3.2 z m 25.13,0 c -0.34,0 -0.61,-1.43 -0.61,-3.2 0,-1.77 0.27,-3.2 0.61,-3.2 h 15.79 c 0.34,0 0.61,1.43 0.61,3.2 0,1.77 -0.27,3.2 -0.61,3.2 z m 25.13,0 c -0.34,0 -0.61,-1.43 -0.61,-3.2 0,-1.77 0.27,-3.2 0.61,-3.2 H 81.9 c 0.34,0 0.61,1.43 0.61,3.2 0,1.77 -0.27,3.2 -0.61,3.2 z M 29.61,4.73 C 29.61,2.12 32.19,0 35.38,0 c 3.19,0 5.77,2.12 5.77,4.73 v 15.899726 c 0,2.61 -2.58,4.73 -5.77,4.73 -3.19,0 -5.77,-2.12 -5.77,-4.73 V 4.73 Z M 6.661381,28.555252 H 116.73138 L 116.47,21.47 c -0.0295,-0.799454 -0.33,-1.53 -0.86,-2.07 -0.53,-0.53 -1.26,-0.86 -2.07,-0.86 H 103 c -1.77,0 -3.2,-1.43 -3.2,-3.2 0,-1.77 1.43,-3.2 3.2,-3.2 h 10.55 c 2.57,0 4.9,1.05 6.59,2.74 1.69,1.69 2.74,4.02 2.74,6.59 v 27.06 65.03 c 0,2.57 -1.05,4.9 -2.74,6.59 -1.69,1.69 -4.02,2.74 -6.59,2.74 H 9.33 c -2.57,0 -4.9,-1.05 -6.59,-2.74 C 1.05,118.45 0,116.12 0,113.55 V 48.52 21.47 C 0,18.9 1.05,16.57 2.74,14.88 4.43,13.19 6.76,12.14 9.33,12.14 H 20.6 c 1.77,0 3.2,1.43 3.2,3.2 0,1.77 -1.43,3.2 -3.2,3.2 H 9.33 C 8.53,18.54 7.8,18.87 7.26,19.4 6.73,19.93 6.4,20.66 6.4,21.47 Z M 116.48,35.341069 H 6.4 V 113.55 c 0,0.8 0.33,1.53 0.86,2.07 0.53,0.53 1.26,0.86 2.07,0.86 h 104.22 c 0.8,0 1.53,-0.33 2.07,-0.86 0.53,-0.53 0.86,-1.26 0.86,-2.07 z M 50.43,18.54 c -1.77,0 -3.2,-1.43 -3.2,-3.2 0,-1.77 1.43,-3.2 3.2,-3.2 h 21.49 c 1.77,0 3.2,1.43 3.2,3.2 0,1.77 -1.43,3.2 -3.2,3.2 z"
       id="path2-15"
       sodipodi:nodetypes="sssssssssssssssssssssssssssssssssssssssssssssssssssssssscsssssccccscssssssscsssscscssssssscscccscsscscsssssss" /></g></svg>